/* XPM */
static char * toolbuttonbg_xpm[] = {
"1 28 3 1",
" 	c #FFFFFF",
".	c #C0C0C0",
"+	c #C3C3C3",
" ",
".",
"+",
"+",
"+",
"+",
"+",
"+",
"+",
"+",
"+",
"+",
"+",
"+",
"+",
"+",
"+",
"+",
"+",
"+",
"+",
"+",
"+",
"+",
"+",
"+",
"+",
"+"};
